<svg width="604" height="475" viewBox="0 0 604 475" fill="none" xmlns="http://www.w3.org/2000/svg">
<path d="M153.507 311.14C205.903 393.483 295.017 438.527 376.917 435.278C268.806 447.312 169.82 413.559 113.913 317.996C86.0569 270.381 84.5581 212.334 95.471 161.534C102.758 127.61 135.933 76.4215 165.18 49.2612C110.642 108.876 97.7842 223.568 153.507 311.14Z" fill="#A4B2E5"/>
<path d="M115.699 255.576C134.217 349.303 199.224 421.711 274.716 447.371C172.332 420.592 92.5874 353.974 79.9232 246.307C73.7668 193.966 87.9612 140.984 115.786 98.2781C134.367 69.7595 79.656 156.273 115.785 141.626C95.3175 209.36 96.005 155.896 115.699 255.576Z" fill="#A4B2E5"/>
<path d="M133.879 236.77C141.164 258.611 141.164 268.219 152.092 298.677C152.092 298.677 156.606 398.365 214.012 433.447C90.1699 389.738 77.1036 247.683 77.1029 236.77C77.0997 184.069 80.4058 136.949 109.884 95.3676C129.57 67.5998 71.7067 158.914 108.383 145.695C85.2736 212.575 141.164 284.108 133.879 236.77Z" fill="#A4B2E5"/>
<path d="M477.253 242.763C484.689 147.983 443.639 65.6685 375.494 12.3159C477.253 73.8929 525.981 158.094 513.391 264.76C507.118 317.906 473.241 360.625 433.714 389.7C407.319 409.115 349.569 423.332 309.518 422.958C389.624 417.214 469.344 343.562 477.253 242.763Z" fill="#A4B2E5"/>
<path d="M472.689 218.833C489.176 147.943 467.535 80.9346 422.067 32.7436C492.036 91.0108 531.123 200.88 509.373 280.175C498.536 319.684 456.15 307.586 422.9 325.065C400.697 336.738 355.355 340.883 325.083 336.011C386.375 340.84 455.155 294.225 472.689 218.833Z" fill="#A4B2E5"/>
<path d="M152.321 292.907C203.751 373.732 295.804 410.638 376.195 407.449C339.301 411.556 315.902 413.999 283.784 411.649C226.377 407.449 149.255 360.826 113.457 299.636C86.1141 252.899 84.643 195.922 95.3547 146.058C102.508 112.759 135.071 62.5143 163.779 35.8546C110.246 94.3703 97.6253 206.949 152.321 292.907Z" fill="url(#paint0_linear_47_189)"/>
<path d="M176.374 292.31C243.979 390.51 367.74 425.198 452.801 369.789C499.928 339.09 516.705 286.451 516.705 230.391C514.174 194.904 500.683 155.438 478.798 121.044C415.707 21.8917 306.87 -22.3843 216.821 11.0021C209.701 13.642 202.99 17.3408 197.002 22.0118C121.819 80.6647 111.791 198.5 176.374 292.31Z" fill="url(#paint1_linear_47_189)"/>
<path d="M176.374 292.31C243.979 390.51 367.74 425.198 452.801 369.789C499.928 339.09 516.705 286.451 516.705 230.391C514.174 194.904 500.683 155.438 478.798 121.044C415.707 21.8917 306.87 -22.3843 216.821 11.0021C209.701 13.642 202.99 17.3408 197.002 22.0118C121.819 80.6647 111.791 198.5 176.374 292.31Z" fill="url(#paint2_linear_47_189)" fill-opacity="0.2"/>
<path d="M275.876 135.818L393.49 221.228C393.49 221.228 395.467 215.324 396.133 214.904C399.267 212.933 408.495 208.715 417.146 205.962C423.927 203.805 430.353 202.547 433.213 203.977C433.213 203.977 422.702 180.873 401.202 195.667C400.731 195.99 400.256 196.332 399.775 196.692L273.482 115.094L275.876 135.818Z" fill="url(#paint3_linear_47_189)"/>
<path fill-rule="evenodd" clip-rule="evenodd" d="M401.202 195.667C422.702 180.873 433.213 203.977 433.213 203.977C430.353 202.547 423.927 203.805 417.146 205.962L401.202 195.667Z" fill="white"/>
<path d="M393.49 221.228L275.876 135.818L273.482 115.094L399.775 196.692C400.256 196.332 400.731 195.99 401.202 195.667L272.082 112.293L288.477 275.834L422.238 209.25L417.146 205.962C408.495 208.715 399.267 212.933 396.133 214.904C395.467 215.324 393.49 221.228 393.49 221.228Z" fill="white"/>
<circle cx="275.934" cy="123.843" r="21.8546" fill="white"/>
<circle cx="290.504" cy="276.825" r="21.8546" fill="white"/>
<circle cx="414.346" cy="211.261" r="21.8546" fill="white"/>
<path d="M296.113 129.088L286.06 143.147C286.06 143.147 294.147 127.485 283.219 121.001L294.875 116.558C297.789 123.842 296.113 127.969 296.113 129.088Z" fill="url(#paint4_linear_47_189)"/>
<path d="M407.062 192.32L403.419 210.532C396.134 214.903 393.584 221.095 393.584 221.095L399.777 196.691C399.777 196.691 403.419 193.194 407.062 192.32Z" fill="url(#paint5_linear_47_189)"/>
<path d="M399.775 196.691C410.703 185.764 439.842 189.407 432.558 218.546C432.558 218.546 410.703 193.049 393.438 221.096L388.848 207.619L396.133 194.433L399.775 196.691Z" fill="url(#paint6_linear_47_189)"/>
<path d="M257.72 116.56C272.29 91.0627 301.429 109.275 295.965 129.745L294.145 127.487L301.429 133.315L290.502 145.699L285.985 143.149C301.429 112.917 257.72 116.56 257.72 116.56Z" fill="url(#paint7_linear_47_189)"/>
<defs>
<linearGradient id="paint0_linear_47_189" x1="302.933" y1="0" x2="302.933" y2="412.566" gradientUnits="userSpaceOnUse">
<stop offset="0.161458" stop-color="#006E91"/>
<stop offset="0.432292" stop-color="#0297C6"/>
<stop offset="0.645833" stop-color="#00AADF"/>
<stop offset="1" stop-color="#E7F9FF"/>
</linearGradient>
<linearGradient id="paint1_linear_47_189" x1="188.615" y1="-41.7059" x2="406.903" y2="477.641" gradientUnits="userSpaceOnUse">
<stop offset="0.03125" stop-color="#007BA0"/>
<stop offset="0.286458" stop-color="#25BBEA"/>
<stop offset="0.515625" stop-color="#7EE0FF"/>
<stop offset="0.755208" stop-color="#BEEFFF"/>
<stop offset="1" stop-color="white"/>
</linearGradient>
<linearGradient id="paint2_linear_47_189" x1="377.921" y1="83.7758" x2="326.927" y2="542.722" gradientUnits="userSpaceOnUse">
<stop stop-color="#007BA0"/>
<stop offset="0.177083" stop-color="#7BCAE2"/>
<stop offset="0.322917" stop-color="#7EE0FF"/>
<stop offset="1" stop-color="white"/>
</linearGradient>
<linearGradient id="paint3_linear_47_189" x1="343.311" y1="202.938" x2="357.496" y2="137.616" gradientUnits="userSpaceOnUse">
<stop offset="0.171875" stop-color="#007DA5"/>
<stop offset="0.645833" stop-color="#2CB1DB"/>
<stop offset="1" stop-color="#34AED6"/>
</linearGradient>
<linearGradient id="paint4_linear_47_189" x1="297.789" y1="131.127" x2="283.219" y2="123.842" gradientUnits="userSpaceOnUse">
<stop offset="0.15625" stop-color="#0A5E78"/>
<stop offset="0.421875" stop-color="#1980A0"/>
<stop offset="0.557292" stop-color="#1E9FC8"/>
</linearGradient>
<linearGradient id="paint5_linear_47_189" x1="396.134" y1="203.976" x2="407.062" y2="207.618" gradientUnits="userSpaceOnUse">
<stop stop-color="#004156"/>
<stop offset="0.481055" stop-color="#0280A8"/>
</linearGradient>
<linearGradient id="paint6_linear_47_189" x1="414.345" y1="211.261" x2="428.915" y2="167.552" gradientUnits="userSpaceOnUse">
<stop stop-color="#007DA5"/>
<stop offset="1" stop-color="#2CB1DB"/>
</linearGradient>
<linearGradient id="paint7_linear_47_189" x1="286.86" y1="134.772" x2="275.932" y2="109.275" gradientUnits="userSpaceOnUse">
<stop stop-color="#2EB1DA"/>
<stop offset="1" stop-color="#0D8CB5"/>
</linearGradient>
</defs>
</svg>
