<svg width="25" height="25" viewBox="0 0 25 25" fill="none" xmlns="http://www.w3.org/2000/svg">
<path d="M0.987805 24.0122C0.337398 23.3618 0.337398 22.3645 0.987805 21.7141L21.7141 0.987805C22.3645 0.337398 23.3618 0.337398 24.0122 0.987805C24.6626 1.63821 24.6626 2.6355 24.0122 3.28591L3.28591 24.0122C2.6355 24.6626 1.59485 24.6626 0.987805 24.0122Z" fill="#FAFCFD"/>
<path d="M23.9688 24.0123C23.3184 24.6627 22.3211 24.6627 21.6707 24.0123L0.987805 3.32936C0.337398 2.67896 0.337398 1.68167 0.987805 1.03126C1.63821 0.380855 2.6355 0.380855 3.28591 1.03126L24.0122 21.7576C24.6192 22.3646 24.6192 23.4052 23.9688 24.0123Z" fill="#FAFCFD"/>
</svg>
