<svg width="80" height="80" viewBox="0 0 80 80" fill="none" xmlns="http://www.w3.org/2000/svg">
<path d="M50.0004 71.144C49.5809 71.1437 49.172 71.0114 48.8317 70.7659C48.4915 70.5204 48.237 70.1741 48.1044 69.776L38.4004 40.704L11.0564 31.028C10.6603 30.8874 10.3186 30.6255 10.0798 30.2796C9.84095 29.9337 9.71717 29.5214 9.72603 29.1011C9.73489 28.6809 9.87592 28.2741 10.1291 27.9386C10.3823 27.6031 10.7348 27.3558 11.1364 27.232L67.6884 9.812C68.0375 9.7049 68.4093 9.6954 68.7634 9.78455C69.1175 9.87371 69.4404 10.0581 69.6972 10.3177C69.9539 10.5774 70.1347 10.9024 70.2199 11.2574C70.3051 11.6125 70.2914 11.9841 70.1804 12.332L51.9044 69.748C51.7769 70.1507 51.5251 70.5026 51.1853 70.7534C50.8454 71.0042 50.4348 71.1409 50.0124 71.144H50.0004ZM18.0924 29.276L40.6684 37.276C40.9548 37.3777 41.2142 37.5433 41.427 37.7602C41.6398 37.9772 41.8003 38.2397 41.8964 38.528L49.9564 62.704L65.2004 14.76L18.0924 29.276Z" fill="#064F5F"/>
<path d="M39.9999 41.136C39.7318 41.1374 39.4663 41.0842 39.2194 40.9796C38.9725 40.8751 38.7495 40.7215 38.5639 40.528C38.1948 40.1471 37.992 39.6352 38.0002 39.1049C38.0085 38.5745 38.2271 38.0692 38.6079 37.7L52.7439 24C52.9325 23.8161 53.1554 23.6712 53.4 23.5735C53.6446 23.4759 53.906 23.4273 54.1694 23.4306C54.4327 23.434 54.6928 23.4892 54.9349 23.593C55.1769 23.6969 55.3961 23.8474 55.5799 24.036C55.7638 24.2246 55.9087 24.4475 56.0064 24.6921C56.1041 24.9367 56.1526 25.1981 56.1493 25.4615C56.1459 25.7248 56.0907 25.9849 55.9869 26.2269C55.883 26.469 55.7325 26.6881 55.5439 26.872L41.4039 40.576C41.0272 40.9391 40.5232 41.1402 39.9999 41.136Z" fill="#064F5F"/>
<path d="M29.9999 70.276C29.5884 70.276 29.187 70.149 28.8503 69.9125C28.5136 69.6759 28.258 69.3413 28.1185 68.9542C27.979 68.5671 27.9622 68.1463 28.0706 67.7494C28.1789 67.3524 28.4071 66.9985 28.7239 66.736L38.7239 58.46C39.1329 58.1263 39.6572 57.9677 40.1825 58.019C40.7079 58.0702 41.1917 58.327 41.5284 58.7335C41.8652 59.1399 42.0276 59.663 41.9803 60.1888C41.933 60.7145 41.6798 61.2002 41.2759 61.54L31.2759 69.816C30.9171 70.1133 30.4658 70.276 29.9999 70.276Z" fill="#064F5F"/>
<path d="M11.7242 70.276C11.3284 70.2759 10.9416 70.1584 10.6127 69.9384C10.2837 69.7184 10.0275 69.4057 9.87629 69.04C9.72511 68.6743 9.68584 68.2719 9.76343 67.8839C9.84103 67.4958 10.032 67.1395 10.3122 66.86L28.5842 48.584C28.9597 48.2084 29.4691 47.9975 30.0002 47.9975C30.5313 47.9975 31.0406 48.2084 31.4162 48.584C31.7917 48.9595 32.0027 49.4689 32.0027 50C32.0027 50.5311 31.7917 51.0404 31.4162 51.416L13.1402 69.688C12.9544 69.8743 12.7338 70.0222 12.4908 70.1231C12.2478 70.224 11.9873 70.2759 11.7242 70.276Z" fill="#064F5F"/>
<path d="M11.7236 52C11.3439 52 10.9721 51.8919 10.6516 51.6884C10.3311 51.4849 10.0752 51.1944 9.91365 50.8508C9.75214 50.5073 9.69175 50.1248 9.73955 49.7482C9.78734 49.3716 9.94135 49.0163 10.1836 48.724L18.4596 38.724C18.7994 38.3201 19.2851 38.0669 19.8108 38.0196C20.3365 37.9723 20.8596 38.1347 21.266 38.4715C21.6725 38.8082 21.9293 39.292 21.9806 39.8174C22.0318 40.3427 21.8733 40.867 21.5396 41.276L13.2636 51.276C13.0759 51.5025 12.8406 51.6848 12.5744 51.8099C12.3082 51.9351 12.0177 52 11.7236 52Z" fill="#064F5F"/>
</svg>
